<svg width="175" height="114" viewBox="0 0 175 114" fill="none" xmlns="http://www.w3.org/2000/svg">
<g filter="url(#filter0_g_1920_368)">
<path d="M47.6812 79.4781C32.9879 79.4781 23.9612 69.8677 23.9612 56.5697C23.9612 43.471 32.8882 33.4049 47.852 33.4049C51.9525 33.4049 56.1811 34.188 59.3988 35.2985C61.8762 36.167 63.0009 37.42 63.3569 39.8831C63.542 41.2926 63.8979 44.2398 64.1542 46.3897C64.5813 50.4617 59.2137 51.7288 58.0177 47.9416C56.3235 42.5882 52.465 39.5841 46.7272 39.5841C39.6511 39.5841 34.255 44.8947 34.0984 55.6585C33.9703 66.052 38.5263 73.3559 47.1971 73.4271C52.9491 73.4698 56.6224 71.4054 58.4022 64.8133C59.4415 60.9406 64.7664 62.279 64.5101 65.6818C64.3108 68.1449 64.0261 70.9498 63.7128 73.0854C63.3854 75.335 62.403 76.4882 59.9968 77.371C56.5513 78.6096 52.0379 79.4781 47.6812 79.4781ZM72.0396 78.7093C68.8076 78.6523 67.6544 74.4522 70.5162 73.0996C73.3637 71.8325 73.8336 70.9355 73.9047 66.052C73.9902 60.243 74.0044 53.1241 73.9332 45.6921C73.8905 42.4459 73.321 41.5631 70.146 39.4987C67.8395 37.9325 68.7222 34.3019 72.1108 34.2449C75.9692 34.188 80.568 34.2449 85.4088 34.2307C96.9129 34.188 103.263 39.997 103.263 46.888C103.263 50.7464 101.426 54.7045 97.34 57.4951C95.8023 58.6057 95.7027 59.645 96.799 61.2254C100.017 65.9808 101.184 67.4046 102.508 69.1985C104.217 71.505 105.028 71.9891 107.064 72.5017C111.108 73.5837 110.211 78.6096 106.538 78.6096H101.925C98.8919 78.6096 97.4397 77.7981 95.8023 75.4204C93.1826 71.5477 90.5913 67.49 87.8435 63.5461C86.5051 61.6668 85.6936 60.6701 84.5973 60.6559H84.4264C83.4867 60.6701 83.0169 61.2966 82.9457 63.66C82.903 64.6567 82.8745 65.8242 82.903 67.1483C83.0169 71.2487 83.3871 71.7186 86.7756 72.9146C89.8367 74.0678 88.8828 78.6666 85.4515 78.7093C81.109 78.7378 76.4533 78.7378 72.0396 78.7093ZM82.8745 52.0706C82.8887 53.9499 83.7003 54.7188 85.1668 54.7045C91.6307 54.6903 93.4246 50.7037 93.4246 47.4148C93.4246 43.1435 90.2496 40.2675 85.4942 40.2105C83.6006 40.1821 82.8887 40.894 82.8745 42.9727C82.846 45.806 82.846 49.0379 82.8745 52.0706ZM120.947 78.7093C117.572 78.6096 116.547 74.4665 119.11 73.1281C122.812 71.2772 123.31 70.6508 123.381 65.5537C123.453 59.8871 123.438 52.6543 123.353 46.6175C123.267 41.1502 122.698 40.2533 118.711 40.2817C115.679 40.3244 114.554 41.677 113.059 46.7741C111.792 51.017 106.538 49.9349 106.737 46.1619C106.894 43.7273 107.264 40.4668 107.663 37.7047C107.948 35.6972 109.101 34.2307 112.361 34.2449C127.026 34.2734 128.678 34.2734 143.243 34.2449C146.518 34.2307 147.671 35.626 148.013 37.8756C148.369 40.239 148.781 43.6988 148.895 46.2758C149.023 49.9491 143.855 50.9315 142.659 46.888C140.979 41.1929 139.712 40.3102 136.822 40.2817C132.992 40.2533 132.479 41.0933 132.38 46.6033C132.266 53.2523 132.251 60.0864 132.337 65.5537C132.422 70.665 132.978 71.4338 136.48 72.9715C139.342 74.3241 138.117 78.6239 134.942 78.7093C130.828 78.7663 125.588 78.7947 120.947 78.7093Z" fill="#FD4309"/>
</g>
<path d="M105.356 101.573C114.034 101.162 121.202 103.495 131.854 101.327C142.346 98.697 143.667 97.4086 154.822 92.0687C163.148 87.8883 169.483 79.1194 169.982 71.8866C170.281 69.4698 170.179 67.3912 170.093 65.821C169.341 59.6689 167.685 59.3485 163.497 52.3795C158.809 45.599 154.716 42.5865 148.854 38.9257C143.1 34.8304 124.083 26.2332 116.949 23.5754C109.924 20.4856 101.277 19.5522 96.2101 18.8513C94.6318 18.6241 93.3793 18.5141 92.4102 18.4653C91.9999 18.4449 91.7996 18.5187 91.7864 18.6228C91.7863 18.6228 91.7863 18.6229 91.7863 18.623C91.7701 18.7528 92.0433 18.9295 92.558 19.0372C95.0528 19.5598 98.7392 20.4832 103.008 22.0075C110.872 24.965 112.053 24.1272 122.503 28.4726C132.806 33.1678 138.641 36.7524 149.489 44.106C154.73 47.8859 157.269 51.2169 159.635 54.9779C161.779 58.8235 164.78 63.1488 164.738 70.9846C164.729 71.1912 164.716 71.3995 164.7 71.6098C163.689 79.8422 158.718 83.0192 154.834 85.2814C150.591 87.4986 146.1 89.0815 137.642 91.2898C120.676 95.8605 97.3819 95.9398 86.4665 94.0204C85.1527 93.8132 83.7804 93.5788 82.351 93.3146C72.0283 91.4117 59.2304 87.9967 46.4402 82.7039C32.3404 76.8215 13.832 64.9991 9.70023 49.739C9.27882 47.9945 9.09828 46.1406 9.26372 44.2399C10.606 28.6284 33.4287 21.4266 42.2725 19.5042C53.2442 17.1628 56.1228 16.9546 67.0424 17.2594C73.3335 17.5166 81.9945 18.0622 89.3625 18.5862C93.0847 18.8623 92.3141 18.2478 88.6152 17.44C83.1938 16.2838 78.6724 16.0887 75.8685 15.2976C70.2372 13.7609 67.7204 13.1712 60.5719 13.9833C53.4611 14.8919 49.9128 13.7802 45.7381 14.5326C41.7025 15.8531 41.4607 14.44 21.34 22.1238C10.7545 26.8726 4.00431 35.1168 3.0449 43.1701C2.10874 50.0606 4.21573 55.3042 6.07126 59.0371C9.94487 67.8074 24.5269 79.0427 36.5707 85.1843C47.0999 91.3627 69.0405 98.0852 81.4861 100.161C83.0736 100.47 84.4912 100.736 85.7005 100.966C96.5109 102.864 96.6319 101.766 105.356 101.573Z" fill="#FD4309"/>
<path d="M69.469 11.6325C60.7914 12.0442 53.6236 9.71129 42.9709 11.8791C32.4789 14.5089 31.1583 15.7973 20.0031 21.1372C11.6771 25.3176 5.34258 34.0865 4.84358 41.3194C4.54445 43.7362 4.64615 45.8147 4.73195 47.3849C5.48466 53.537 7.14061 53.8574 11.3283 60.8264C16.0165 67.607 20.1089 70.6194 25.9714 74.2802C31.7251 78.3755 50.7426 86.9727 57.8762 89.6305C64.9008 92.7203 73.5485 93.6537 78.6151 94.3547C80.1934 94.5818 81.4459 94.6918 82.415 94.7406C82.8253 94.761 83.0256 94.6873 83.0388 94.5832C83.0388 94.5831 83.0388 94.583 83.0389 94.583C83.0551 94.4531 82.7818 94.2764 82.2672 94.1687C79.7724 93.6462 76.0859 92.7228 71.8173 91.1984C63.9529 88.241 62.7719 89.0788 52.3226 84.7333C42.0188 80.0382 36.1843 76.4536 25.336 69.0999C20.095 65.32 17.556 61.989 15.1899 58.2281C13.0465 54.3824 10.0454 50.0571 10.0869 42.2213C10.0961 42.0148 10.1087 41.8064 10.1251 41.5961C11.1358 33.3637 16.1069 30.1868 19.991 27.9245C24.2345 25.7073 28.725 24.1245 37.1837 21.9161C54.1489 17.3455 77.4433 17.2661 88.3587 19.1855C89.6725 19.3927 91.0448 19.6271 92.4742 19.8913C102.797 21.7942 115.595 25.2092 128.385 30.502C142.485 36.3844 160.993 48.2068 165.125 63.4669C165.546 65.2115 165.727 67.0654 165.561 68.9661C164.219 84.5776 141.396 91.7793 132.553 93.7017C121.581 96.0432 118.702 96.2513 107.783 95.9465C101.492 95.6894 92.8307 95.1437 85.4627 94.6197C81.7405 94.3436 82.511 94.9581 86.21 95.7659C91.6314 96.9221 96.1528 97.1172 98.9567 97.9084C104.588 99.445 107.105 100.035 114.253 99.2227C121.364 98.314 124.912 99.4258 129.087 98.6734C133.123 97.3528 133.365 98.766 153.485 91.0822C164.071 86.3334 170.821 78.0891 171.78 70.0358C172.716 63.1454 170.609 57.9017 168.754 54.1689C164.88 45.3986 150.298 34.1632 138.255 28.0216C127.725 21.8432 105.785 15.1207 93.3391 13.0449C91.7516 12.7356 90.334 12.4704 89.1247 12.2396C78.3143 10.3424 78.1933 11.4402 69.469 11.6325Z" fill="#FD4309"/>
<defs>
<filter id="filter0_g_1920_368" x="23.6214" y="33.0651" width="125.742" height="46.7528" filterUnits="userSpaceOnUse" color-interpolation-filters="sRGB">
<feFlood flood-opacity="0" result="BackgroundImageFix"/>
<feBlend mode="normal" in="SourceGraphic" in2="BackgroundImageFix" result="shape"/>
<feTurbulence type="fractalNoise" baseFrequency="0.29430589079856873 0.29430589079856873" numOctaves="3" seed="9821" />
<feDisplacementMap in="shape" scale="0.67956507205963135" xChannelSelector="R" yChannelSelector="G" result="displacedImage" width="100%" height="100%" />
<feMerge result="effect1_texture_1920_368">
<feMergeNode in="displacedImage"/>
</feMerge>
</filter>
</defs>
</svg>
